<svg width="241" height="179" viewBox="0 0 241 179" fill="none" xmlns="http://www.w3.org/2000/svg">
<path d="M1 10C1 4.47714 5.47714 0 11 0H231C236.523 0 241 4.47714 241 10C241 15.5229 236.523 20 231 20H11C5.47714 20 1 15.5229 1 10Z" fill="black"/>
<path d="M1 90C1 84.4771 5.47714 80 11 80H231C236.523 80 241 84.4771 241 90C241 95.5229 236.523 100 231 100H11C5.47714 100 1 95.5229 1 90Z" fill="black"/>
<path d="M10 159C4.47714 159 0 163.477 0 169C0 174.523 4.47714 179 10 179H230C235.523 179 240 174.523 240 169C240 163.477 235.523 159 230 159H10Z" fill="black"/>
</svg>
