<svg fill="none" height="585" viewBox="0 0 557 585" width="557" xmlns="http://www.w3.org/2000/svg"><g clip-rule="evenodd" fill-rule="evenodd"><path d="m325.738 138.49c4.608-5.408 7.727-12.037 7.206-19.464-1.502-21.4008-31.292-16.693-37.087-5.892s-5.106 38.199 2.383 40.13c2.987.77 9.35-1.116 15.825-5.02l-4.064 28.756h24z" fill="#b28b67"/><path d="m327.582 143.308c3.013-13.401 11.594-22.536 10.283-28.526-.873-3.993-3.202-6.476-6.986-7.45-1.957-7.9163-8.268-11.2836-18.934-10.1014-15.999 1.7732-25.764 8.4174-21.547 23.0374 3.877 0 8.556-1.402 15.027 1 2.053.762 3.522 3.126 4.406 7.09h2.924c2.838-4.705 5.636-6.434 8.395-5.187 2.758 1.247 3.386 4.277 1.881 9.088l1.441 11.049z" fill="#0a0a0d"/><path d="m401.001 302h-115c-8.837 0-16 7.164-16 16v92c0 8.837 7.163 16 16 16h115c8.836 0 16-7.163 16-16v-92c0-8.836-7.164-16-16-16zm-16 28c2.209 0 4 1.791 4 4v60c0 2.209-1.791 4-4 4h-83c-2.21 0-4-1.791-4-4v-60c0-2.209 1.79-4 4-4z" fill="#333"/><path d="m170.842 421c19.716-24.076 33.056-41.924 40.02-53.546 11.925-19.899 21.685-37.606 24.766-44.369 7.344-16.13-16.909-23.682-22.398-16.159-8.308 11.387-26.051 47.217-53.229 107.492z" fill="#b28b67"/><path d="m211.243 414 36.692-92.363c7.848-16.837-30.05-27.905-35.818-20.069-13.094 17.789-44.215 87.966-48.116 93.266z" fill="#333"/><path d="m308.968 395.477c-7.148-10.426-33.146-45.502-47.306-60.016-4.07-4.17-8.04-8.173-11.795-11.903-11.162-11.088-33.39 7.548-22.249 17.647 27.747 25.15 68.232 59.102 71.614 62.129 4.741 4.243 14.228-1.304 9.736-7.857z" fill="#b28b67"/><path d="m307.296 390.767c2.462 2.027 4.064 3.683 4.805 4.967.902 1.562 1.957 3.991 3.167 7.287-1.812 1.046-18.094 10.447-48.846 28.201-3.692-3.463-4.267-6.152-1.725-8.065 2.541-1.914 4.639-3.528 6.292-4.842l16.859-23.228c.325-.447.95-.546 1.397-.222.008.006.015.011.023.017l3.503 2.697c3.214-.28 5.612-.877 7.195-1.791 1.286-.743 2.762-2.287 4.428-4.634.639-.901 1.888-1.113 2.789-.473.038.027.076.056.113.086z" fill="#666464"/><path d="m179.322 417.402c1.119 2.987 1.679 5.221 1.679 6.704 0 1.803-.301 4.435-.902 7.894-2.092 0-20.892 0-56.401 0-1.466-4.845-.62-7.461 2.538-7.848 3.158-.386 5.781-.735 7.87-1.046l26.215-11.687c.504-.225 1.095.002 1.32.506.004.009.008.018.011.026l1.685 4.088c2.924 1.364 5.299 2.046 7.127 2.046 1.485 0 3.536-.6 6.152-1.799 1.004-.461 2.191-.02 2.652.984.019.044.038.088.054.132z" fill="#666464"/><path d="m261.139 326.25c30.496-4.968 50.924-8.365 61.281-10.192 29.523-5.205 38.132-21.092 33.042-55.756h-54.396c-7.198 2.079-37.276 14.936-90.233 38.57-9.528 4.73-7.753 18.676-6.012 23.27.071.188 16.134 27.711 48.187 82.571l44.498-28.347-36.451-46.775c-.963-1.939-.935-3.053.084-3.341z" fill="#333"/><path d="m257.219 247.212-31.898 23.423c-8.651 2.335-15.879 5.239-21.684 8.714-1.371 1.249-3.028 3.779 2.658 3.342 5.687-.437 11.688-.641 12.472 1.298.785 1.94-2.656 4.259-1.07 6.876 1.057 1.745 6.053-2.63 14.986-13.124l31.588-13.098zm122.474.808-20.898.082c12.903 41.654 19.869 63.755 20.898 66.304 2.314 5.734-2.583 14.468-4.677 19.161 6.82 3.052 6.093-8.25 14.697-4.247 7.852 3.653 13.826 10.273 22.899 4.675 1.115-.689 2.337-3.28-.616-5.305-7.358-5.045-17.961-13.875-19.393-16.782-1.954-3.963-6.257-25.259-12.91-63.888z" fill="#b28b67"/><path d="m320.306 160.332-8.648-1.483c-32.083 27.715-45.261 80.96-84.587 109.166l9.466 11.733c68.223-8.447 85.133-73.393 83.769-119.416z" fill="#333"/><path d="m358.001 269c-34.672 0-60.176 0-76.512 0-3.496 0-2.837-5.048-2.332-7.596 5.833-29.4 28.602-61.092 28.602-102.943l22.07-3.461c18.254 29.359 24.567 65.505 28.172 114z" fill="#fff"/><path d="m357.386 183.858c3.205-.921 5.743-3.07 7.615-6.447 8.066-14.555 5.153-22.568-3.468-25.203-8.62-2.634-16.308 2.792-30.042 2.792-.747 0-1.432.047-2.053.141l-6.909.394c-19.822 67.18-25.289 112.002-16.401 134.465h60.221c3.568 8.32 6.982 15.32 10.243 21h16.409c1.544-49.933-10.328-92.313-35.615-127.142z" fill="#333"/><path d="m353.235 255.498c-1.894 15.846-4.972 27.347-9.234 34.502h22.348c-4.162-9.705-8.533-21.205-13.114-34.502z" fill="#000" fill-opacity=".1"/></g><path d="m531.247 449.47c120.961 121.393-299.759 49.458-391.269 19.334-91.5107-30.125-149.33622-229.091-42.2482-256.06 85.0202-21.411 145.9942-25.418 148.5652-124.1872 3.954-151.9044 297.609 22.8832 231.421 127.9412-66.188 105.059-67.43 111.578 53.531 232.972z" fill="#27ae60" fill-opacity=".03"/></svg>