<?xml version="1.0" encoding="UTF-8" standalone="no"?>
<!DOCTYPE svg PUBLIC "-//W3C//DTD SVG 1.1//EN" "http://www.w3.org/Graphics/SVG/1.1/DTD/svg11.dtd">
<svg width="100%" height="100%" viewBox="0 0 700 700" version="1.1" xmlns="http://www.w3.org/2000/svg" xmlns:xlink="http://www.w3.org/1999/xlink" xml:space="preserve" xmlns:serif="http://www.serif.com/" style="fill-rule:evenodd;clip-rule:evenodd;stroke-linejoin:round;stroke-miterlimit:2;">
    <g>
        <g id="_x33__21_">
            <g>
                <path d="M502.714,0L240.428,0C194.178,0 153,42.425 153,87.429L127.733,88.019C81.505,88.019 43.714,129.853 43.714,174.857L43.714,612C43.714,657.004 84.893,699.428 131.143,699.428L459,699.428C505.249,699.428 546.428,657.004 546.428,612L568.285,612C614.535,612 655.714,569.576 655.714,524.572L655.714,175.382L502.714,0ZM459,655.715L131.143,655.715C108.193,655.715 87.429,634.274 87.429,612L87.429,174.857C87.429,152.585 106.117,131.864 129.067,131.864L153,131.143L153,524.572C153,569.576 194.178,612 240.428,612L502.714,612C502.714,634.273 481.949,655.715 459,655.715ZM612,524.572C612,546.843 591.235,568.285 568.285,568.285L240.428,568.285C217.478,568.285 196.714,546.844 196.714,524.572L196.714,87.429C196.714,65.157 217.478,43.715 240.428,43.715L459,43.715C458.649,94.052 459,131.69 459,131.69C459,177.109 499.872,218.572 546.428,218.572L612,218.572L612,524.572ZM546.428,174.857C523.151,174.857 502.714,132.564 502.714,109.876L502.714,44.348L612,174.857L546.428,174.857ZM502.714,306.394L306,306.394C293.935,306.394 284.143,316.164 284.143,328.229C284.143,340.294 293.935,350.064 306,350.064L502.714,350.064C514.779,350.064 524.571,340.293 524.571,328.229C524.571,316.164 514.779,306.394 502.714,306.394ZM502.714,415.57L306,415.57C293.935,415.57 284.143,425.34 284.143,437.404C284.143,449.47 293.935,459.24 306,459.24L502.714,459.24C514.779,459.24 524.571,449.47 524.571,437.404C524.571,425.34 514.779,415.57 502.714,415.57Z" style="fill:rgb(40,83,125);fill-rule:nonzero;"/>
            </g>
        </g>
    </g>
</svg>
