<svg fill="none" height="42" viewBox="0 0 53 42" width="53" xmlns="http://www.w3.org/2000/svg"><path clip-rule="evenodd" d="m.594912 39.6525c-.5145761-.5146-.5145759-1.3489 0-1.8635l15.955688-15.9557c.5146-.5146.5146-1.3488 0-1.8634l-15.955689-15.95572c-.5145761-.51457-.5145761-1.34887 0-1.86344l1.530619-1.530625c.51458-.514576 1.34887-.514576 1.86345 0l19.34972 19.349785c.5146.5146.5146 1.3488 0 1.8634l-19.34972 19.3498c-.51458.5146-1.34887.5146-1.86345 0zm28.999988 0c-.5146-.5146-.5146-1.3489 0-1.8635l15.9557-15.9557c.5146-.5146.5146-1.3488 0-1.8634l-15.9557-15.95572c-.5146-.51457-.5146-1.34887 0-1.86344l1.5306-1.530625c.5146-.514576 1.3489-.514576 1.8635 0l19.3497 19.349785c.5146.5146.5146 1.3488 0 1.8634l-19.3497 19.3498c-.5146.5146-1.3489.5146-1.8635 0z" fill="#f2994a" fill-rule="evenodd"/></svg>