<?xml version="1.0" encoding="UTF-8" standalone="no"?>
<!DOCTYPE svg PUBLIC "-//W3C//DTD SVG 1.1//EN" "http://www.w3.org/Graphics/SVG/1.1/DTD/svg11.dtd">
<svg width="100%" height="100%" viewBox="0 0 512 512" version="1.1" xmlns="http://www.w3.org/2000/svg" xmlns:xlink="http://www.w3.org/1999/xlink" xml:space="preserve" xmlns:serif="http://www.serif.com/" style="fill-rule:evenodd;clip-rule:evenodd;stroke-linejoin:round;stroke-miterlimit:2;">
    <path d="M152,320C160.832,320 168,312.832 168,304C168,295.168 160.832,288 152,288C121.12,288 96,262.88 96,232C96,217.016 101.824,202.976 112.472,192.4C122.976,181.824 137.016,176 152,176L232,176C262.88,176 288,201.12 288,232C288,234.064 287.88,236.072 287.616,238.24C286.224,250.832 280.536,262.656 271.48,271.648C267.224,275.968 262.384,279.44 257.104,281.96C249.128,285.768 245.752,295.312 249.552,303.288C253.36,311.256 262.904,314.64 270.888,310.832C279.528,306.704 287.392,301.08 294.152,294.232C308.256,280.232 317.232,261.592 319.4,241.92C319.808,238.616 320,235.368 320,232C320,183.48 280.52,144 232,144L152,144C128.424,144 106.328,153.176 89.84,169.768C73.176,186.328 64,208.424 64,232C64,280.52 103.48,320 152,320Z" style="fill:rgb(40,83,125);fill-rule:nonzero;"/>
    <path d="M360,224C351.168,224 344,231.168 344,240C344,248.832 351.168,256 360,256C390.88,256 416,281.128 416,312C416,326.984 410.176,341.024 399.528,351.6C389.024,362.176 374.984,368 360,368L280,368C249.12,368 224,342.872 224,312C224,309.936 224.12,307.928 224.384,305.76C225.776,293.168 231.464,281.344 240.52,272.352C244.776,268.032 249.608,264.56 254.888,262.04C262.864,258.232 266.24,248.68 262.44,240.704C258.64,232.728 249.088,229.36 241.104,233.152C232.456,237.28 224.592,242.912 217.84,249.76C203.736,263.76 194.76,282.4 192.592,302.064C192.192,305.384 192,308.632 192,312C192,360.52 231.48,400 280,400L360,400C383.568,400 405.672,390.824 422.16,374.232C438.824,357.672 448,335.568 448,312C448,263.48 408.52,224 360,224Z" style="fill:rgb(40,83,125);fill-rule:nonzero;"/>
</svg>
