<?xml version="1.0" standalone="no"?>
<!DOCTYPE svg PUBLIC "-//W3C//DTD SVG 20010904//EN"
 "http://www.w3.org/TR/2001/REC-SVG-20010904/DTD/svg10.dtd">
<svg version="1.0" xmlns="http://www.w3.org/2000/svg"
 width="274.000000pt" height="274.000000pt" viewBox="0 0 274.000000 274.000000"
 preserveAspectRatio="xMidYMid meet">
<metadata>
Created by potrace 1.11, written by Peter Selinger 2001-2013
</metadata>
<g transform="translate(0.000000,274.000000) scale(0.100000,-0.100000)"
fill="#000000" stroke="none">
<path d="M1233 2729 c-211 -36 -431 -199 -530 -394 -51 -100 -56 -126 -28
-131 125 -19 204 -49 315 -119 165 -105 291 -294 325 -490 12 -70 12 -70 19
-30 31 174 102 313 218 427 129 127 282 198 464 215 64 6 65 6 59 32 -4 14
-20 53 -37 86 -103 204 -288 347 -522 402 -41 9 -231 11 -283 2z"/>
<path d="M560 1983 c-57 -9 -152 -45 -207 -78 -158 -94 -259 -253 -279 -439
l-6 -56 581 0 c546 0 581 1 582 18 5 79 -34 206 -88 290 -48 76 -137 160 -210
199 -110 59 -259 85 -373 66z"/>
<path d="M1950 1971 c-233 -59 -414 -266 -437 -502 l-5 -59 580 0 c657 0 596
-9 579 85 -60 346 -384 560 -717 476z"/>
<path d="M1318 1343 l-3 -28 -624 -3 -624 -2 6 -89 c28 -407 242 -773 588
-1008 116 -80 299 -155 454 -188 90 -20 341 -28 420 -15 28 5 67 12 88 15 109
18 285 85 397 151 217 127 415 344 521 569 41 87 84 210 94 265 3 19 10 53 15
76 5 22 12 82 16 132 l7 92 -667 0 -666 0 -1 23 c-1 12 -1 25 0 30 0 4 -3 7
-8 7 -5 0 -11 -12 -13 -27z"/>
</g>
</svg>
